<svg xmlns="http://www.w3.org/2000/svg" aria-hidden="true" style="position:absolute;width:0;height:0;overflow:hidden">
  <defs>
    <symbol id="icon-chevron-down" viewBox="0 0 32 32">
      <path fill="none" stroke="#fff" stroke-linecap="round" stroke-linejoin="round" stroke-width="3.2" d="m8 12 8 8 8-8" style="stroke:var(--color1, #fff)"/>
    </symbol>
    <symbol id="icon-active-heart" viewBox="0 0 32 32">
      <path fill="#3470ff" stroke="#3470ff" stroke-linecap="round" stroke-linejoin="round" stroke-width="1.778" d="M27.787 6.147a7.345 7.345 0 0 0-5.187-2.15 7.33 7.33 0 0 0-5.187 2.15L16 7.56l-1.413-1.413a7.333 7.333 0 0 0-10.374 0 7.333 7.333 0 0 0 0 10.374L16 28.308l11.787-11.787a7.345 7.345 0 0 0 2.15-5.187 7.33 7.33 0 0 0-2.15-5.187z" style="fill:var(--color2, #3470ff);stroke:var(--color2, #3470ff)"/>
    </symbol>
    <symbol id="icon-heart" viewBox="0 0 32 32">
      <path fill="none" stroke="#fff" stroke-linecap="round" stroke-linejoin="round" stroke-width="2.667" d="M27.787 6.147a7.345 7.345 0 0 0-5.187-2.15 7.33 7.33 0 0 0-5.187 2.15L16 7.56l-1.413-1.413a7.333 7.333 0 0 0-10.374 0 7.333 7.333 0 0 0 0 10.374L16 28.308l11.787-11.787a7.345 7.345 0 0 0 2.15-5.187 7.33 7.33 0 0 0-2.15-5.187z" style="stroke:var(--color1, #fff)"/>
    </symbol>
    <symbol id="icon-close-1" viewBox="0 0 32 32">
      <path stroke-linejoin="round" stroke-linecap="round" stroke-miterlimit="4" stroke-width="2.4" d="M24 8l-16 16M8 8l16 16"></path>
    </symbol>
    <symbol id="icon-bars" viewBox="0 0 27 32">
      <path d="M27.429 24v2.286c0 0.625-0.518 1.143-1.143 1.143h-25.143c-0.625 0-1.143-0.518-1.143-1.143v-2.286c0-0.625 0.518-1.143 1.143-1.143h25.143c0.625 0 1.143 0.518 1.143 1.143zM27.429 14.857v2.286c0 0.625-0.518 1.143-1.143 1.143h-25.143c-0.625 0-1.143-0.518-1.143-1.143v-2.286c0-0.625 0.518-1.143 1.143-1.143h25.143c0.625 0 1.143 0.518 1.143 1.143zM27.429 5.714v2.286c0 0.625-0.518 1.143-1.143 1.143h-25.143c-0.625 0-1.143-0.518-1.143-1.143v-2.286c0-0.625 0.518-1.143 1.143-1.143h25.143c0.625 0 1.143 0.518 1.143 1.143z"></path>
    </symbol>
  </defs>
</svg>
