<?xml version="1.0" standalone="no"?>
<!DOCTYPE svg PUBLIC "-//W3C//DTD SVG 20010904//EN"
 "http://www.w3.org/TR/2001/REC-SVG-20010904/DTD/svg10.dtd">
<svg version="1.0" xmlns="http://www.w3.org/2000/svg"
 width="700.000000pt" height="700.000000pt" viewBox="0 0 700.000000 700.000000"
 preserveAspectRatio="xMidYMid meet">
<metadata>
Created by potrace 1.14, written by Peter Selinger 2001-2017
</metadata>
<g transform="translate(0.000000,700.000000) scale(0.100000,-0.100000)"
fill="#000000" stroke="none">
<path d="M1853 5898 c-115 -19 -200 -91 -263 -222 -21 -45 -66 -171 -100 -281
-104 -338 -389 -1225 -396 -1234 -2 -2 -72 -5 -156 -7 -125 -2 -163 -6 -208
-23 -140 -53 -241 -165 -280 -311 -18 -66 -18 -1213 0 -1290 19 -81 66 -163
126 -220 53 -50 150 -104 209 -115 60 -11 5167 -7 5219 5 127 28 236 117 292
235 19 39 37 88 40 110 10 60 11 1170 1 1240 -18 122 -103 248 -207 308 -89
51 -125 59 -283 61 -81 1 -151 6 -157 12 -5 5 -36 95 -69 199 -101 322 -190
602 -296 930 -150 465 -205 558 -360 600 -37 11 -3054 14 -3112 3z m1429 -237
c2 -14 2 -63 0 -108 l-3 -83 -58 0 c-32 0 -72 -5 -89 -11 -82 -28 -90 -154
-12 -194 24 -12 74 -15 272 -15 220 0 246 2 274 19 43 26 60 71 46 120 -19 60
-41 74 -132 79 l-80 5 0 107 0 107 698 -1 698 -1 38 -25 c69 -46 122 -187 371
-985 26 -82 72 -229 102 -325 31 -96 56 -179 57 -184 1 -9 -515 -16 -541 -8
-7 2 -13 16 -13 31 0 14 -7 54 -15 89 -62 262 -286 454 -530 454 -267 0 -502
-224 -541 -517 -3 -27 -10 -52 -14 -55 -5 -3 -565 -5 -1246 -4 -924 0 -1239 3
-1242 12 -2 6 45 159 103 339 181 556 201 621 270 843 86 278 106 312 190 330
17 4 337 7 712 7 l682 0 3 -26z m1261 -1080 c81 -39 141 -92 189 -165 60 -94
99 -246 66 -258 -7 -3 -202 -5 -433 -4 l-420 1 -1 40 c-3 165 138 348 313 406
86 28 202 20 286 -20z m-3071 -889 c306 -109 389 -500 155 -724 -266 -256
-706 -87 -734 283 -17 211 126 406 332 454 70 17 180 11 247 -13z m3339 17 c0
-5 0 -40 0 -79 0 -38 0 -83 0 -100 l-1 -30 -1420 0 -1420 0 0 109 0 109 1420
0 c831 0 1420 -4 1421 -9z m729 -14 c110 -18 237 -109 293 -210 101 -180 64
-409 -88 -543 -284 -249 -725 -49 -725 329 0 273 243 471 520 424z m-731 -423
c3 -6 5 -55 3 -110 l-3 -99 -1420 0 -1419 0 0 108 0 108 98 3 c261 8 2736 -2
2741 -10z m-4 -434 c6 -6 8 -53 6 -158 l-1 -55 -1420 0 -1420 0 0 106 c0 58 2
108 4 110 7 7 2824 4 2831 -3z"/>
<path d="M876 1668 c1 -261 3 -310 19 -353 78 -222 356 -291 532 -132 21 20
52 62 69 94 l29 58 3 318 3 317 -328 0 -328 0 1 -302z"/>
<path d="M5250 1678 c0 -327 6 -368 64 -449 126 -173 392 -177 521 -8 66 86
68 100 70 442 l2 307 -329 0 -328 0 0 -292z"/>
</g>
</svg>
